<?xml version="1.0" encoding="iso-8859-1"?>
<!-- Generator: Adobe Illustrator 16.0.0, SVG Export Plug-In . SVG Version: 6.00 Build 0)  -->
<!DOCTYPE svg PUBLIC "-//W3C//DTD SVG 1.1//EN" "http://www.w3.org/Graphics/SVG/1.1/DTD/svg11.dtd">
<svg version="1.1" id="Capa_1" xmlns="http://www.w3.org/2000/svg" xmlns:xlink="http://www.w3.org/1999/xlink" x="0px" y="0px"
	 viewBox="0 0 79.536 79.536" style="enable-background:new 0 0 79.536 79.536;"
	 xml:space="preserve">
<g>
	<path style="fill: #959aa8" d="M66.151,47.794c0.187,1.041-0.527,2.04-1.573,2.237c-0.104,0.01-0.229,0.021-0.332,0.021
		c-0.932,0-1.74-0.663-1.905-1.61L59.27,34.476l-0.481,15.193h-0.01l1.367,25.104c0.088,1.521-1.041,2.822-2.548,2.931
		c-0.067,0.011-0.124,0.011-0.207,0.011c-1.419,0-2.641-1.099-2.719-2.543l-3.128-23.695l-3.102,23.695
		c-0.113,1.444-1.315,2.543-2.755,2.543c-0.057,0-0.113,0-0.186-0.011c-1.502-0.108-2.642-1.409-2.543-2.931l1.331-25.104
		l-0.461-15.188L32.773,44.899c-0.367,0.332-0.828,0.502-1.289,0.502c-0.531,0-1.054-0.228-1.442-0.652
		c-0.704-0.792-0.647-2.019,0.153-2.733c0,0,8.797-10.165,9.797-12.236c1.719-3.516,4.37-5.639,10.899-5.639h1.326
		c6.529,0,9.17,2.123,10.895,5.639C64.246,32.089,66.151,47.794,66.151,47.794z M51.565,7.832c-4.075,0-7.358,3.283-7.358,7.332
		c0,4.062,3.283,7.351,7.358,7.351c4.044,0,7.327-3.288,7.327-7.351C58.893,11.115,55.609,7.832,51.565,7.832z M23.357,3.638
		l-0.251,0.016l0.753,8.06l1.696-0.143l2.657-0.251l0.124,1.284l-2.674,0.259l0.728,7.638l0.911,0.326l0.166,1.549l-0.859,0.463
		l3.097,33.081l1.908,1.273l-0.652,0.792l-1.119-0.497l0.329,3.526l-2.045,5.11l1.181,13.412c0,0-3.638-1.538-7.803-0.834
		l3.415-14.664l-0.637-6.214L23.521,57.7c-0.065-0.564-0.87-1.389-1.846-1.29c-0.968,0.099-1.686,1.792-1.686,1.792l-2.747,1.149
		l-2.004-3.304c1.686-0.543,3.431-1.449,4.826-2.268c-0.029-0.15-0.132-0.373-0.363-0.632c-0.805-0.964-0.932-1.295-0.826-2.02
		c-0.08-0.187-0.197-0.585-0.249-1.046c-0.021-0.332-0.01-0.684,0.127-0.963c0.143-0.326,0.414-0.549,0.748-0.684
		c0.815-0.233,1.595-0.166,2.136-0.058l-0.158-1.88l-1.543-0.165L19.66,45.95l-6.305-0.377l0.355-5.815l9.624,0.254l0.191-0.492
		l-0.955-0.803l-0.412-26.828l0.562-0.049l-0.743-8.07L21.41,3.806l-0.334-3.625L23,0L23.357,3.638z M20.17,52.733
		c0.218,0.27,0.365,0.508,0.497,0.705c0.521-0.311,0.992-0.596,1.326-0.803l-0.057-0.854c-1.007,0.249-1.988-0.042-2.493-0.27
		C19.448,51.812,19.575,52.051,20.17,52.733z M19.686,49.011c-0.163,0.072-0.295,0.191-0.381,0.348
		c-0.212,0.476,0.026,1.253,0.143,1.574c1.193,0.414,1.952,0.217,2.392-0.135l-0.15-1.766C21.234,48.902,20.46,48.772,19.686,49.011
		z"/>
</g>

</svg>
