<?xml version="1.0" encoding="utf-8"?>
<!-- Generator: Adobe Illustrator 19.2.0, SVG Export Plug-In . SVG Version: 6.00 Build 0)  -->
<svg version="1.1" id="Capa_1" xmlns="http://www.w3.org/2000/svg" xmlns:xlink="http://www.w3.org/1999/xlink" x="0px" y="0px"
	 viewBox="0 0 536.1 536.1" style="enable-background:new 0 0 536.1 536.1;" xml:space="preserve">
<g id="XMLID_1_">
	<g>
		<path d="M514.7,163.7c14.1,32.4,21.1,67.2,21.1,104.3c0,37.1-7,71.9-21.1,104.3c-14.1,32.4-33.3,60.8-57.5,85.1
			c-24.3,24.3-52.6,43.5-85.1,57.5c-32.4,14.1-67.2,21.1-104.4,21.1s-71.9-7-104.4-21.1c-32.4-14.1-60.8-33.3-85.1-57.5
			c-24.3-24.3-43.3-52.6-57.2-85.1C7.2,340,0.3,305.2,0.3,268.1c0-37.1,6.9-71.9,20.8-104.3c13.9-32.4,33-60.8,57.2-85.1
			c24.3-24.3,52.6-43.5,85.1-57.5C195.8,7,230.6,0,267.8,0s71.9,7,104.4,21.1c32.4,14.1,60.8,33.3,85.1,57.5
			C481.4,102.9,500.6,131.3,514.7,163.7z M405.5,260.4c2.8-11.6,4.3-24,4.3-37c0-14.3-2.2-27-6.7-38.3c-4.5-11.2-10.8-20.9-19-29.1
			c2.5-9.4,3.2-19.2,2.1-29.4c-1-10.2-3.2-19.4-6.4-27.5c-15.1,0.8-27.8,3.9-38,9.2c-10.2,5.3-17.5,9.8-22,13.5
			c-16.3-4.1-33.3-6.1-50.8-6.1h-4.3c-18.8,0-36.9,2.4-54.5,7.3c-4.1-3.7-11.3-8.4-21.7-14.1c-10.4-5.7-23.4-9-38.9-9.8
			c-3.3,8.6-5.4,18.3-6.4,29.1c-1,10.8,0.1,21.1,3.4,30.9c-7.3,8.2-13.1,17.6-17.1,28.1c-4.1,10.6-6.1,22.7-6.1,36.1
			c0,13.1,1.5,25.5,4.6,37.3c3.1,11.8,8.8,22.3,17.1,31.5c8.4,9.2,19.7,16.7,34,22.6c14.3,5.9,32.6,9.7,55.1,11.3
			c-1.6,0.8-3.8,1.7-6.4,2.8c-2.7,1-5.5,2.5-8.6,4.3c-3.1,1.8-5.9,4.3-8.6,7.3s-4.6,7.2-5.8,12.5c-5.3,3.7-10.6,5.9-15.9,6.7
			c-5.3,0.8-10.2,0.8-14.7,0c-4.5-0.8-8.6-2.3-12.2-4.3c-3.7-2.1-6.7-4.1-9.2-6.1c-5.3-4.5-10.4-10-15.3-16.5
			c-4.9-6.5-9.8-10.8-14.7-12.9c-0.8-0.8-3.4-1.4-7.7-1.8c-4.3-0.4-7.6,0.8-10.1,3.7c-1.2,1.2-1.1,2.5,0.3,4
			c1.4,1.4,3.5,3.2,6.1,5.2c2.7,2,5.7,4.8,9.2,8.3c3.5,3.5,6.6,7.9,9.5,13.2c5.3,11,10.8,19.1,16.5,24.2c5.7,5.1,14.1,8.7,25.1,10.7
			c6.5,1.2,12.4,1.6,17.7,1.2c5.3-0.4,9.6-1.2,12.9-2.4c0,10.6,0.1,20.3,0.3,29.1c0.2,8.8-0.1,14.2-0.9,16.2c-1.6,3.3-4,6.1-7,8.6
			c-3.1,2.5-5.6,4.3-7.6,5.5c-2,1.2-2.7,2.8-1.8,4.6c0.8,1.8,3.7,2.9,8.6,3.4c2.4,0,5.5-0.4,9.2-1.2c3.7-0.8,7.1-2.2,10.4-4.3
			c3.3-2,6-4.6,8.3-7.7c2.3-3.1,3.4-7,3.4-11.9v-50.2c0-5.7,1.2-9.8,3.7-12.2s5.1-4.1,8-4.9v66.1c0,5.7-0.5,10.6-1.5,14.7
			c-1,4.1-1.9,6.9-2.8,8.6c-1.2,1.6-2.4,3.4-3.7,5.2c-1.2,1.8-1.8,3.4-1.8,4.6s0.7,1.9,2.1,2.1c1.4,0.2,4.4-0.3,8.9-1.5
			c9-2,15.2-6.7,18.7-14.1c3.5-7.3,5.2-15.1,5.2-23.3v-64.9h13.5v64.9c0,8.2,1.8,15.9,5.5,23.3c3.7,7.3,9.8,12,18.4,14.1
			c4.5,1.2,7.6,1.7,9.2,1.5c1.6-0.2,2.3-0.9,2.1-2.1c-0.2-1.2-0.8-2.8-1.8-4.6c-1-1.8-2.1-3.6-3.4-5.2c-2.8-3.7-4.3-11.4-4.3-23.3
			v-66.1c2.9,0.8,5.6,2.4,8.3,4.9s4,6.5,4,12.2v50.2c0,4.9,1.1,8.9,3.4,11.9c2.3,3.1,5,5.6,8.3,7.7c3.3,2,6.7,3.5,10.4,4.3
			c3.7,0.8,6.7,1.2,9.2,1.2c4.9-0.4,7.8-1.5,8.6-3.4c0.8-1.8,0.2-3.4-1.8-4.6c-2-1.2-4.6-3.1-7.7-5.5c-3.1-2.4-5.4-5.3-7-8.6
			c-0.8-1.6-1.1-6.2-0.9-13.8c0.2-7.5,0.3-15.8,0.3-24.8c0-9-0.3-17.8-0.9-26.3c-0.6-8.6-1.9-15.1-4-19.6
			c-3.7-6.9-8.1-11.6-13.2-14.1c-5.1-2.4-9.3-4.5-12.6-6.1c21.2-1.6,38.7-5.5,52.3-11.6c13.7-6.1,24.4-13.9,32.1-23.3
			C397.3,282.5,402.6,272,405.5,260.4z"/>
	</g>
	<g>
	</g>
</g>
</svg>
