<?xml version="1.0" encoding="utf-8"?>
<!-- Generator: Adobe Illustrator 19.2.0, SVG Export Plug-In . SVG Version: 6.00 Build 0)  -->
<svg version="1.1" id="Capa_1" xmlns="http://www.w3.org/2000/svg" xmlns:xlink="http://www.w3.org/1999/xlink" x="0px" y="0px"
	 viewBox="0 0 792 792" style="enable-background:new 0 0 792 792;" xml:space="preserve">
<g>
	<g id="_x39__40_">
		<g>
			<path d="M594,328.5h-49.5v18.3C503.1,315.7,451.8,297,396,297c-55.8,0-107.1,18.7-148.5,49.8V198c0-82,66.5-148.5,148.5-148.5
				c47.7,0,90.1,22.5,117.2,57.4c1.2-1.1,2.4-2.1,3.6-3.2c6.2-5.3,12.6-10.5,19.1-15.5c5.3-4.1,10.6-8.2,15.9-12.2
				C515.6,29.7,459.3,0,396,0C286.7,0,198,88.7,198,198v198.4c-30.9,41.3-49.5,92.5-49.5,148.1C148.5,681.2,259.3,792,396,792
				s247.5-110.8,247.5-247.5c0-55.6-18.6-106.7-49.5-148.1V328.5z M396,742.5c-109.3,0-198-88.7-198-198s88.7-198,198-198
				c105.6,0,198,92.4,198,198C594,653.8,505.3,742.5,396,742.5z"/>
			<path d="M396,495c-13.7,0-24.8,11.1-24.8,24.8v99c0,13.7,11.1,24.8,24.8,24.8s24.8-11.1,24.8-24.8v-99
				C420.8,506.1,409.7,495,396,495z"/>
		</g>
	</g>
</g>
</svg>
