<?xml version="1.0" encoding="utf-8"?>
<!-- Generator: Adobe Illustrator 19.2.0, SVG Export Plug-In . SVG Version: 6.00 Build 0)  -->
<svg version="1.1" id="Capa_1" xmlns="http://www.w3.org/2000/svg" xmlns:xlink="http://www.w3.org/1999/xlink" x="0px" y="0px"
	 viewBox="0 0 30.5 33.4" style="enable-background:new 0 0 30.5 33.4;" xml:space="preserve">
<g>
	<g id="Phone_x5F_2">
		<g>
			<path d="M1.2,31.2l1,0.8c1.2,1,2.8,1.5,4.7,1.4c4.7-0.3,10.8-4.2,15.9-10c7.4-8.5,9.8-18,5.6-21.6l-1-0.8
				c-0.7-0.6-1.6-0.9-2.6-0.9c-0.9,0.1-1.8,0.5-2.4,1.2l-3.3,3.8c-1.3,1.5-1.1,3.7,0.4,5l1,0.8c1,0.9,0.8,3.4-3,7.8
				c-3.2,3.7-5.2,4.4-6.1,4.5c-0.5,0-0.9-0.1-1.2-0.3l-1-0.8c-1.4-1.2-3.8-1.1-5,0.4l-3.3,3.8c-0.6,0.7-0.9,1.6-0.9,2.6
				C0.1,29.7,0.5,30.6,1.2,31.2z M2.4,27.5l3.3-3.8C6.3,23,7.3,23,7.9,23.5l1,0.8c0.7,0.6,1.6,0.9,2.6,0.8c2.1-0.2,4.7-1.9,7.5-5.2
				c5.9-6.8,3.9-9.7,2.8-10.6l-1-0.8C20.2,8,20.1,7,20.7,6.4L24,2.5c0.5-0.6,1.5-0.7,2.2-0.2l1,0.8C30.4,6,27.7,14.6,21.3,22
				c-4.7,5.4-10.4,9.1-14.5,9.4c-1.4,0.1-2.5-0.2-3.3-0.9l-1-0.8c-0.3-0.3-0.5-0.6-0.5-1C2,28.2,2.1,27.8,2.4,27.5z"/>
		</g>
	</g>
</g>
</svg>
